<?xml version="1.0" standalone="no"?><!DOCTYPE svg PUBLIC "-//W3C//DTD SVG 1.1//EN" "http://www.w3.org/Graphics/SVG/1.1/DTD/svg11.dtd"><svg t="1614739320228" class="icon" viewBox="0 0 1024 1024" version="1.1" xmlns="http://www.w3.org/2000/svg" p-id="1191" xmlns:xlink="http://www.w3.org/1999/xlink" width="200" height="200"><defs><style type="text/css"></style></defs><path d="M213.312 682.688v170.624h469.312V768H1024v256H682.688l-0.064-85.376H128v-256h85.312zM1024 384v256H682.688l-0.064-85.376h-341.12v-85.248h341.12V384H1024z m-85.312 85.312H768v85.376h170.688v-85.376zM1024 0v256H682.688l-0.064-85.376H213.312v170.688H128v-256h554.624V0H1024z m-85.312 85.312H768v85.376h170.688V85.312zM768 853.312v85.376h170.688v-85.376H768z m-768-512h341.312v341.376H0V341.312z m85.312 85.376v170.624H256V426.688H85.312z" fill="#595959" p-id="1192"></path></svg>