<?xml version="1.0" standalone="no"?><!DOCTYPE svg PUBLIC "-//W3C//DTD SVG 1.1//EN" "http://www.w3.org/Graphics/SVG/1.1/DTD/svg11.dtd"><svg t="1614740639849" class="icon" viewBox="0 0 1024 1024" version="1.1" xmlns="http://www.w3.org/2000/svg" p-id="3621" data-spm-anchor-id="a313x.7781069.0.i1" xmlns:xlink="http://www.w3.org/1999/xlink" width="200" height="200"><defs><style type="text/css"></style></defs><path d="M512 955.733333c-121.890133 0-227.584-43.8784-314.146133-130.440533C111.872 739.2768 68.266667 633.890133 68.266667 512c0-121.856 43.588267-227.549867 129.536-314.112C284.450133 111.854933 390.144 68.266667 512 68.266667c121.890133 0 227.2768 43.605333 313.2928 129.5872C911.854933 284.416 955.733333 390.109867 955.733333 512c0 121.924267-43.895467 227.328-130.474666 313.326933C739.328 911.837867 633.924267 955.733333 512 955.733333z m0-853.333333c-112.520533 0-210.1248 40.2432-290.065067 119.620267C142.6432 301.8752 102.4 399.479467 102.4 512c0 112.503467 40.226133 209.783467 119.586133 289.160533C301.909333 881.083733 399.496533 921.6 512 921.6c112.4864 0 209.7664-40.4992 289.1264-120.405333C881.1008 721.7664 921.6 624.4864 921.6 512c0-112.503467-40.516267-210.090667-120.439467-290.013867C721.783467 142.626133 624.503467 102.4 512 102.4z" p-id="3622"></path><path d="M632.32 667.306667a33.979733 33.979733 0 0 1-24.2176-10.0864L512 560.452267l-96.1024 96.768a34.133333 34.133333 0 1 1-48.4352-48.093867l96.3584-97.041067-96.273067-96.273066a34.133333 34.133333 0 1 1 48.264534-48.264534L512 463.7184l96.187733-96.170667a34.133333 34.133333 0 1 1 48.264534 48.264534l-96.273067 96.273066 96.3584 97.041067A34.133333 34.133333 0 0 1 632.32 667.306667z" p-id="3623"></path></svg>